<svg xmlns="http://www.w3.org/2000/svg" xmlns:xlink="http://www.w3.org/1999/xlink" width="500" zoomAndPan="magnify" viewBox="0 0 375 374.999991" height="500" preserveAspectRatio="xMidYMid meet" version="1.0"><defs><g/></defs><path fill="#039be5" d="M 133.605469 137.195312 C 134.429688 138.015625 135.230469 138.859375 136.011719 139.722656 C 136.792969 140.582031 137.554688 141.464844 138.289062 142.363281 C 139.027344 143.261719 139.742188 144.175781 140.4375 145.113281 C 141.128906 146.046875 141.800781 146.996094 142.445312 147.964844 C 143.089844 148.929688 143.714844 149.914062 144.3125 150.910156 C 144.910156 151.90625 145.484375 152.917969 146.03125 153.945312 C 146.578125 154.972656 147.101562 156.007812 147.597656 157.0625 C 148.097656 158.113281 148.566406 159.175781 149.011719 160.25 C 149.457031 161.324219 149.875 162.410156 150.269531 163.503906 C 150.660156 164.597656 151.023438 165.703125 151.363281 166.816406 C 151.699219 167.929688 152.011719 169.050781 152.292969 170.179688 C 152.574219 171.304688 152.832031 172.441406 153.058594 173.582031 C 153.285156 174.722656 153.484375 175.867188 153.652344 177.019531 C 153.824219 178.167969 153.964844 179.324219 154.082031 180.480469 C 154.195312 181.636719 154.28125 182.796875 154.335938 183.957031 C 154.394531 185.121094 154.421875 186.28125 154.421875 187.445312 C 154.421875 188.609375 154.394531 189.769531 154.335938 190.933594 C 154.28125 192.09375 154.195312 193.253906 154.082031 194.410156 C 153.96875 195.570312 153.824219 196.722656 153.652344 197.875 C 153.484375 199.023438 153.285156 200.167969 153.058594 201.308594 C 152.832031 202.449219 152.574219 203.585938 152.292969 204.714844 C 152.011719 205.84375 151.699219 206.960938 151.363281 208.074219 C 151.027344 209.1875 150.660156 210.292969 150.269531 211.386719 C 149.878906 212.484375 149.457031 213.566406 149.015625 214.640625 C 148.570312 215.714844 148.097656 216.78125 147.601562 217.832031 C 147.101562 218.882812 146.582031 219.921875 146.03125 220.945312 C 145.484375 221.972656 144.910156 222.984375 144.3125 223.980469 C 143.714844 224.980469 143.09375 225.960938 142.445312 226.929688 C 141.800781 227.894531 141.132812 228.847656 140.4375 229.78125 C 139.746094 230.714844 139.03125 231.632812 138.292969 232.53125 C 137.554688 233.429688 136.796875 234.308594 136.015625 235.171875 C 135.234375 236.035156 134.429688 236.875 133.609375 237.699219 C 132.785156 238.519531 131.945312 239.320312 131.082031 240.101562 C 130.222656 240.882812 129.339844 241.644531 128.441406 242.382812 C 127.542969 243.121094 126.625 243.835938 125.691406 244.527344 C 124.757812 245.21875 123.808594 245.890625 122.839844 246.535156 C 121.871094 247.183594 120.890625 247.804688 119.894531 248.402344 C 118.894531 249 117.882812 249.574219 116.859375 250.121094 C 115.832031 250.671875 114.792969 251.191406 113.742188 251.691406 C 112.691406 252.1875 111.628906 252.660156 110.554688 253.105469 C 109.480469 253.546875 108.394531 253.96875 107.300781 254.359375 C 106.203125 254.75 105.101562 255.117188 103.988281 255.453125 C 102.875 255.789062 101.753906 256.101562 100.625 256.382812 C 99.496094 256.667969 98.363281 256.921875 97.222656 257.148438 C 96.082031 257.375 94.9375 257.574219 93.785156 257.746094 C 92.636719 257.914062 91.480469 258.058594 90.324219 258.171875 C 89.164062 258.285156 88.007812 258.371094 86.84375 258.429688 C 85.683594 258.484375 84.519531 258.515625 83.359375 258.515625 C 82.195312 258.515625 81.03125 258.484375 79.871094 258.429688 C 78.707031 258.371094 77.550781 258.285156 76.390625 258.171875 C 75.234375 258.058594 74.082031 257.914062 72.929688 257.746094 C 71.78125 257.574219 70.632812 257.375 69.492188 257.148438 C 68.351562 256.921875 67.21875 256.667969 66.089844 256.382812 C 64.960938 256.101562 63.839844 255.792969 62.726562 255.453125 C 61.613281 255.117188 60.511719 254.75 59.414062 254.359375 C 58.320312 253.96875 57.234375 253.550781 56.160156 253.105469 C 55.085938 252.660156 54.023438 252.1875 52.972656 251.691406 C 51.921875 251.195312 50.882812 250.671875 49.855469 250.121094 C 48.832031 249.574219 47.820312 249 46.820312 248.402344 C 45.824219 247.804688 44.84375 247.183594 43.875 246.539062 C 42.90625 245.890625 41.957031 245.222656 41.023438 244.527344 C 40.089844 243.835938 39.171875 243.121094 38.273438 242.382812 C 37.375 241.644531 36.492188 240.886719 35.632812 240.105469 C 34.769531 239.324219 33.929688 238.523438 33.105469 237.699219 C 32.28125 236.878906 31.480469 236.035156 30.699219 235.171875 C 29.917969 234.3125 29.160156 233.429688 28.421875 232.53125 C 27.683594 231.632812 26.96875 230.714844 26.277344 229.78125 C 25.582031 228.847656 24.914062 227.898438 24.265625 226.929688 C 23.621094 225.964844 23 224.980469 22.402344 223.984375 C 21.804688 222.984375 21.230469 221.972656 20.683594 220.949219 C 20.132812 219.921875 19.609375 218.882812 19.113281 217.832031 C 18.617188 216.78125 18.144531 215.71875 17.699219 214.644531 C 17.253906 213.570312 16.835938 212.484375 16.445312 211.390625 C 16.050781 210.292969 15.6875 209.191406 15.351562 208.078125 C 15.011719 206.964844 14.703125 205.84375 14.417969 204.714844 C 14.136719 203.589844 13.882812 202.453125 13.65625 201.3125 C 13.429688 200.171875 13.230469 199.027344 13.058594 197.875 C 12.886719 196.726562 12.746094 195.570312 12.632812 194.414062 C 12.519531 193.257812 12.433594 192.097656 12.375 190.933594 C 12.320312 189.773438 12.289062 188.613281 12.289062 187.449219 C 12.289062 186.285156 12.316406 185.121094 12.375 183.960938 C 12.433594 182.800781 12.519531 181.640625 12.632812 180.484375 C 12.746094 179.324219 12.886719 178.171875 13.058594 177.019531 C 13.230469 175.871094 13.429688 174.726562 13.65625 173.582031 C 13.882812 172.441406 14.136719 171.308594 14.417969 170.179688 C 14.703125 169.050781 15.011719 167.933594 15.347656 166.820312 C 15.6875 165.707031 16.050781 164.601562 16.445312 163.507812 C 16.835938 162.410156 17.253906 161.328125 17.699219 160.253906 C 18.144531 159.179688 18.613281 158.113281 19.113281 157.0625 C 19.609375 156.011719 20.132812 154.972656 20.679688 153.949219 C 21.230469 152.921875 21.800781 151.910156 22.398438 150.914062 C 22.996094 149.914062 23.621094 148.933594 24.265625 147.964844 C 24.914062 147 25.582031 146.046875 26.273438 145.113281 C 26.96875 144.179688 27.683594 143.261719 28.421875 142.363281 C 29.160156 141.464844 29.917969 140.585938 30.699219 139.722656 C 31.480469 138.859375 32.28125 138.019531 33.105469 137.195312 C 33.925781 136.375 34.769531 135.570312 35.628906 134.792969 C 36.492188 134.011719 37.371094 133.25 38.269531 132.511719 C 39.171875 131.773438 40.085938 131.058594 41.019531 130.367188 C 41.957031 129.671875 42.90625 129.003906 43.871094 128.359375 C 44.839844 127.710938 45.820312 127.089844 46.820312 126.492188 C 47.816406 125.894531 48.828125 125.320312 49.855469 124.773438 C 50.878906 124.222656 51.917969 123.703125 52.96875 123.203125 C 54.023438 122.707031 55.085938 122.234375 56.160156 121.789062 C 57.234375 121.34375 58.320312 120.925781 59.414062 120.535156 C 60.507812 120.144531 61.613281 119.777344 62.726562 119.441406 C 63.839844 119.101562 64.960938 118.792969 66.085938 118.511719 C 67.214844 118.226562 68.351562 117.972656 69.492188 117.746094 C 70.632812 117.519531 71.777344 117.320312 72.925781 117.148438 C 74.078125 116.980469 75.230469 116.835938 76.390625 116.722656 C 77.546875 116.609375 78.707031 116.523438 79.867188 116.464844 C 81.03125 116.410156 82.191406 116.378906 83.355469 116.378906 C 84.519531 116.378906 85.679688 116.410156 86.84375 116.464844 C 88.003906 116.523438 89.164062 116.609375 90.320312 116.722656 C 91.476562 116.835938 92.632812 116.980469 93.78125 117.148438 C 94.933594 117.320312 96.078125 117.519531 97.21875 117.746094 C 98.359375 117.972656 99.496094 118.226562 100.621094 118.511719 C 101.75 118.792969 102.871094 119.101562 103.984375 119.441406 C 105.097656 119.777344 106.203125 120.144531 107.296875 120.535156 C 108.390625 120.925781 109.476562 121.34375 110.550781 121.789062 C 111.625 122.234375 112.6875 122.707031 113.738281 123.203125 C 114.792969 123.699219 115.832031 124.222656 116.855469 124.769531 C 117.882812 125.320312 118.894531 125.894531 119.890625 126.492188 C 120.886719 127.089844 121.871094 127.710938 122.835938 128.355469 C 123.804688 129.003906 124.753906 129.671875 125.691406 130.363281 C 126.625 131.058594 127.539062 131.773438 128.441406 132.511719 C 129.339844 133.25 130.21875 134.007812 131.082031 134.789062 C 131.941406 135.570312 132.785156 136.371094 133.605469 137.195312 Z M 133.605469 137.195312 " fill-opacity="1" fill-rule="nonzero"/><path fill="#fffffe" d="M 73.878906 194.542969 C 70.296875 190.960938 68.316406 186.132812 68.316406 181.070312 C 68.316406 176.003906 70.296875 171.175781 73.878906 167.59375 L 94.652344 146.816406 C 98.238281 143.234375 103.066406 141.253906 108.128906 141.253906 C 113.195312 141.253906 118.023438 143.234375 121.605469 146.816406 C 125.1875 150.398438 127.167969 155.230469 127.167969 160.292969 C 127.167969 165.355469 125.1875 170.1875 121.605469 173.769531 L 105.511719 189.863281 L 99.660156 184.011719 L 115.753906 167.917969 C 117.78125 165.890625 118.894531 163.160156 118.894531 160.292969 C 118.894531 157.429688 117.78125 154.695312 115.753906 152.667969 C 113.726562 150.640625 110.996094 149.527344 108.128906 149.527344 C 105.265625 149.527344 102.535156 150.640625 100.503906 152.664062 L 79.730469 173.441406 C 77.703125 175.46875 76.589844 178.199219 76.589844 181.066406 C 76.589844 183.929688 77.703125 186.660156 79.734375 188.691406 L 81 189.957031 L 75.144531 195.816406 Z M 73.878906 194.542969 " fill-opacity="1" fill-rule="evenodd"/><path fill="#fffffe" d="M 92.835938 180.347656 C 96.417969 183.933594 98.398438 188.761719 98.398438 193.824219 C 98.398438 198.886719 96.417969 203.71875 92.835938 207.300781 L 72.0625 228.074219 C 68.476562 231.660156 63.648438 233.640625 58.585938 233.640625 C 53.519531 233.640625 48.691406 231.660156 45.109375 228.074219 C 41.527344 224.492188 39.542969 219.664062 39.542969 214.601562 C 39.542969 209.535156 41.527344 204.707031 45.109375 201.125 L 61.203125 185.03125 L 67.054688 190.882812 L 50.960938 206.976562 C 48.929688 209.003906 47.820312 211.734375 47.820312 214.601562 C 47.820312 217.464844 48.933594 220.195312 50.960938 222.226562 C 52.988281 224.253906 55.71875 225.367188 58.585938 225.367188 C 61.449219 225.367188 64.179688 224.253906 66.210938 222.226562 L 86.984375 201.453125 C 89.011719 199.425781 90.125 196.695312 90.125 193.828125 C 90.125 190.964844 89.011719 188.230469 86.980469 186.203125 L 85.714844 184.9375 L 91.566406 179.085938 Z M 92.835938 180.347656 " fill-opacity="1" fill-rule="evenodd"/><g fill="#242424" fill-opacity="1"><g transform="translate(167.068982, 191.769203)"><g><path d="M 25.5625 -21.859375 L 16.046875 -21.859375 L 16.046875 -27.46875 C 16.046875 -28.257812 15.59375 -28.65625 14.6875 -28.65625 L 12.78125 -28.65625 C 11.875 -28.65625 11.421875 -28.257812 11.421875 -27.46875 L 11.421875 -7.453125 C 11.421875 -6.648438 11.875 -6.25 12.78125 -6.25 L 14.6875 -6.25 C 15.59375 -6.25 16.046875 -6.648438 16.046875 -7.453125 L 16.046875 -12.84375 L 25.5625 -12.84375 L 25.5625 -6.75 C 25.5625 -2.25 22.894531 0 17.5625 0 L 9.90625 0 C 4.570312 0 1.90625 -2.25 1.90625 -6.75 L 1.90625 -28.171875 C 1.90625 -32.671875 4.570312 -34.921875 9.90625 -34.921875 L 17.5625 -34.921875 C 22.894531 -34.921875 25.5625 -32.671875 25.5625 -28.171875 Z M 25.5625 -21.859375 "/></g></g></g><g fill="#242424" fill-opacity="1"><g transform="translate(193.994187, 191.769203)"><g><path d="M 25.625 -22.953125 L 16.09375 -22.953125 L 16.09375 -27.46875 C 16.09375 -28.257812 15.640625 -28.65625 14.734375 -28.65625 L 12.78125 -28.65625 C 11.875 -28.65625 11.421875 -28.257812 11.421875 -27.46875 L 11.421875 -7.453125 C 11.421875 -6.648438 11.875 -6.25 12.78125 -6.25 L 14.734375 -6.25 C 15.640625 -6.25 16.09375 -6.648438 16.09375 -7.453125 L 16.09375 -13.265625 L 13.375 -13.265625 L 13.375 -19.3125 L 25.625 -19.3125 L 25.625 -6.75 C 25.625 -2.25 22.957031 0 17.625 0 L 9.90625 0 C 4.570312 0 1.90625 -2.25 1.90625 -6.75 L 1.90625 -28.171875 C 1.90625 -32.671875 4.570312 -34.921875 9.90625 -34.921875 L 17.625 -34.921875 C 22.957031 -34.921875 25.625 -32.671875 25.625 -28.171875 Z M 25.625 -22.953125 "/></g></g></g><g fill="#242424" fill-opacity="1"><g transform="translate(221.24575, 191.769203)"><g><path d="M 21.640625 -17.84375 L 28.5 0 L 18.28125 0 L 11.75 -17.84375 L 18.21875 -34.921875 L 28.453125 -34.921875 Z M 2.171875 0 L 2.171875 -34.921875 L 11.6875 -34.921875 L 11.6875 0 Z M 2.171875 0 "/></g></g></g><g fill="#242424" fill-opacity="1"><g transform="translate(250.074753, 191.769203)"><g><path d="M 1.09375 -13.328125 L 1.09375 -19.578125 L 17.5625 -19.578125 L 17.5625 -13.328125 Z M 1.09375 -13.328125 "/></g></g></g><g fill="#242424" fill-opacity="1"><g transform="translate(268.732014, 191.769203)"><g><path d="M 11.421875 0 L 2.171875 0 L 2.171875 -36.390625 L 11.421875 -36.390625 Z M 11.421875 0 "/></g></g></g><g fill="#242424" fill-opacity="1"><g transform="translate(282.330597, 191.769203)"><g><path d="M 2.015625 -29.859375 L 2.015625 -36.390625 L 11.578125 -36.390625 L 11.578125 -29.859375 Z M 11.421875 0 L 2.171875 0 L 2.171875 -27.140625 L 11.421875 -27.140625 Z M 11.421875 0 "/></g></g></g><g fill="#242424" fill-opacity="1"><g transform="translate(295.929181, 191.769203)"><g><path d="M 16.203125 -27.140625 L 17.1875 -27.140625 C 22.007812 -27.140625 24.421875 -24.890625 24.421875 -20.390625 L 24.421875 0 L 15.171875 0 L 15.171875 -19.140625 C 15.171875 -19.941406 14.71875 -20.34375 13.8125 -20.34375 L 12.890625 -20.34375 C 11.910156 -20.34375 11.421875 -19.796875 11.421875 -18.703125 L 11.421875 0 L 2.171875 0 L 2.171875 -27.140625 L 11.265625 -27.140625 L 11.265625 -23.65625 C 11.765625 -25.976562 13.410156 -27.140625 16.203125 -27.140625 Z M 16.203125 -27.140625 "/></g></g></g><g fill="#242424" fill-opacity="1"><g transform="translate(322.256043, 191.769203)"><g><path d="M 11.421875 0 L 2.171875 0 L 2.171875 -36.390625 L 11.421875 -36.390625 L 11.421875 -14.796875 L 16.53125 -27.140625 L 26.109375 -27.140625 L 20.28125 -13.765625 L 26.109375 0 L 16.484375 0 L 11.421875 -12.671875 Z M 11.421875 0 "/></g></g></g><g fill="#00afef" fill-opacity="1"><g transform="translate(170.019981, 235.408986)"><g><path d="M 1.6875 -27.203125 L 14.28125 -27.203125 C 18.4375 -27.203125 20.515625 -25.453125 20.515625 -21.953125 L 20.515625 -14.15625 C 20.515625 -10.65625 18.4375 -8.90625 14.28125 -8.90625 L 9.109375 -8.90625 L 9.109375 0 L 1.6875 0 Z M 13.09375 -15.125 L 13.09375 -20.96875 C 13.09375 -21.59375 12.738281 -21.90625 12.03125 -21.90625 L 9.109375 -21.90625 L 9.109375 -14.203125 L 12.03125 -14.203125 C 12.738281 -14.203125 13.09375 -14.507812 13.09375 -15.125 Z M 13.09375 -15.125 "/></g></g></g><g fill="#00afef" fill-opacity="1"><g transform="translate(191.589127, 235.408986)"><g><path d="M 9.109375 -9.65625 L 9.109375 0 L 1.6875 0 L 1.6875 -27.203125 L 14.28125 -27.203125 C 18.4375 -27.203125 20.515625 -25.453125 20.515625 -21.953125 L 20.515625 -14.921875 C 20.515625 -12.234375 19.296875 -10.578125 16.859375 -9.953125 L 21.859375 0 L 13.90625 0 L 9.578125 -9.65625 Z M 12.03125 -21.90625 L 9.109375 -21.90625 L 9.109375 -14.703125 L 12.03125 -14.703125 C 12.738281 -14.703125 13.09375 -15.015625 13.09375 -15.640625 L 13.09375 -20.96875 C 13.09375 -21.59375 12.738281 -21.90625 12.03125 -21.90625 Z M 12.03125 -21.90625 "/></g></g></g><g fill="#00afef" fill-opacity="1"><g transform="translate(213.582019, 235.408986)"><g><path d="M 7.796875 -27.203125 L 14.0625 -27.203125 C 18.21875 -27.203125 20.296875 -25.453125 20.296875 -21.953125 L 20.296875 -5.25 C 20.296875 -1.75 18.21875 0 14.0625 0 L 7.796875 0 C 3.640625 0 1.5625 -1.75 1.5625 -5.25 L 1.5625 -21.953125 C 1.5625 -25.453125 3.640625 -27.203125 7.796875 -27.203125 Z M 12.875 -6.234375 L 12.875 -20.96875 C 12.875 -21.59375 12.523438 -21.90625 11.828125 -21.90625 L 10.046875 -21.90625 C 9.335938 -21.90625 8.984375 -21.59375 8.984375 -20.96875 L 8.984375 -6.234375 C 8.984375 -5.609375 9.335938 -5.296875 10.046875 -5.296875 L 11.828125 -5.296875 C 12.523438 -5.296875 12.875 -5.609375 12.875 -6.234375 Z M 12.875 -6.234375 "/></g></g></g><g fill="#00afef" fill-opacity="1"><g transform="translate(235.659672, 235.408986)"><g><path d="M 0.421875 -10.890625 L 7.84375 -10.890625 L 7.84375 -6.234375 C 7.84375 -5.609375 8.195312 -5.296875 8.90625 -5.296875 L 9.359375 -5.296875 C 10.066406 -5.296875 10.421875 -5.609375 10.421875 -6.234375 L 10.421875 -27.203125 L 17.84375 -27.203125 L 17.84375 -5.25 C 17.84375 -1.75 15.765625 0 11.609375 0 L 6.65625 0 C 2.5 0 0.421875 -1.75 0.421875 -5.25 Z M 0.421875 -10.890625 "/></g></g></g><g fill="#00afef" fill-opacity="1"><g transform="translate(255.237175, 235.408986)"><g><path d="M 9.109375 -5.296875 L 18.390625 -5.296875 L 18.390625 0 L 1.6875 0 L 1.6875 -27.203125 L 18.015625 -27.203125 L 18.015625 -21.90625 L 9.109375 -21.90625 L 9.109375 -16.359375 L 16.78125 -16.359375 L 16.78125 -11.0625 L 9.109375 -11.0625 Z M 9.109375 -5.296875 "/></g></g></g><g fill="#00afef" fill-opacity="1"><g transform="translate(274.475671, 235.408986)"><g><path d="M 19.921875 -17.03125 L 12.5 -17.03125 L 12.5 -21.40625 C 12.5 -22.019531 12.144531 -22.328125 11.4375 -22.328125 L 9.953125 -22.328125 C 9.253906 -22.328125 8.90625 -22.019531 8.90625 -21.40625 L 8.90625 -5.8125 C 8.90625 -5.1875 9.253906 -4.875 9.953125 -4.875 L 11.4375 -4.875 C 12.144531 -4.875 12.5 -5.1875 12.5 -5.8125 L 12.5 -10 L 19.921875 -10 L 19.921875 -5.25 C 19.921875 -1.75 17.84375 0 13.6875 0 L 7.71875 0 C 3.5625 0 1.484375 -1.75 1.484375 -5.25 L 1.484375 -21.953125 C 1.484375 -25.453125 3.5625 -27.203125 7.71875 -27.203125 L 13.6875 -27.203125 C 17.84375 -27.203125 19.921875 -25.453125 19.921875 -21.953125 Z M 19.921875 -17.03125 "/></g></g></g><g fill="#00afef" fill-opacity="1"><g transform="translate(295.663444, 235.408986)"><g><path d="M 18.09375 -27.203125 L 18.09375 -21.90625 L 12.84375 -21.90625 L 12.84375 0 L 5.421875 0 L 5.421875 -21.90625 L 0.21875 -21.90625 L 0.21875 -27.203125 Z M 18.09375 -27.203125 "/></g></g></g></svg>