<svg width="449" height="190" viewBox="0 0 449 190" fill="none" xmlns="http://www.w3.org/2000/svg">
<path d="M162.141 27.9271C163.24 29.0208 164.307 30.1458 165.349 31.2969C166.391 32.4427 167.406 33.6198 168.385 34.8177C169.37 36.0156 170.323 37.2344 171.25 38.4844C172.172 39.7292 173.068 40.9948 173.927 42.2865C174.786 43.5729 175.62 44.8854 176.417 46.2135C177.214 47.5417 177.979 48.8906 178.708 50.2604C179.437 51.6302 180.135 53.0104 180.797 54.4167C181.464 55.8177 182.089 57.2344 182.682 58.6667C183.276 60.099 183.833 61.5469 184.359 63.0052C184.88 64.4635 185.365 65.9375 185.818 67.4219C186.266 68.9063 186.682 70.401 187.057 71.9063C187.432 73.4063 187.776 74.9219 188.078 76.4427C188.38 77.9635 188.646 79.4896 188.87 81.026C189.099 82.5573 189.286 84.099 189.443 85.6406C189.594 87.1823 189.708 88.7292 189.781 90.276C189.859 91.8281 189.896 93.375 189.896 94.9271C189.896 96.4792 189.859 98.026 189.781 99.5781C189.708 101.125 189.594 102.672 189.443 104.214C189.292 105.76 189.099 107.297 188.87 108.833C188.646 110.365 188.38 111.891 188.078 113.411C187.776 114.932 187.432 116.448 187.057 117.953C186.682 119.458 186.266 120.948 185.818 122.432C185.37 123.917 184.88 125.391 184.359 126.849C183.839 128.313 183.276 129.755 182.687 131.188C182.094 132.62 181.464 134.042 180.802 135.443C180.135 136.844 179.443 138.229 178.708 139.594C177.979 140.964 177.214 142.313 176.417 143.641C175.62 144.974 174.792 146.281 173.927 147.573C173.068 148.859 172.177 150.13 171.25 151.375C170.328 152.62 169.375 153.844 168.391 155.042C167.406 156.24 166.396 157.411 165.354 158.563C164.312 159.714 163.24 160.833 162.146 161.932C161.047 163.026 159.927 164.094 158.776 165.135C157.63 166.177 156.453 167.193 155.255 168.177C154.057 169.161 152.833 170.115 151.589 171.036C150.344 171.958 149.078 172.854 147.786 173.714C146.495 174.578 145.187 175.406 143.859 176.203C142.526 177 141.177 177.766 139.812 178.495C138.443 179.229 137.057 179.922 135.656 180.589C134.255 181.25 132.839 181.88 131.406 182.474C129.974 183.063 128.526 183.625 127.068 184.146C125.604 184.667 124.135 185.156 122.651 185.604C121.167 186.052 119.672 186.469 118.167 186.844C116.661 187.224 115.151 187.563 113.63 187.865C112.109 188.167 110.583 188.432 109.047 188.661C107.516 188.885 105.974 189.078 104.432 189.229C102.885 189.38 101.344 189.495 99.7917 189.573C98.2448 189.646 96.6927 189.688 95.1458 189.688C93.5937 189.688 92.0417 189.646 90.4948 189.573C88.9427 189.495 87.401 189.38 85.8542 189.229C84.3125 189.078 82.776 188.885 81.2396 188.661C79.7083 188.432 78.1771 188.167 76.6562 187.865C75.1354 187.563 73.625 187.224 72.1198 186.844C70.6146 186.469 69.1198 186.057 67.6354 185.604C66.151 185.156 64.6823 184.667 63.2187 184.146C61.7604 183.625 60.3125 183.068 58.8802 182.474C57.4479 181.88 56.0312 181.25 54.6302 180.589C53.2292 179.927 51.8437 179.229 50.4739 178.495C49.1094 177.766 47.7604 177 46.4271 176.203C45.099 175.406 43.7917 174.578 42.5 173.719C41.2083 172.854 39.9427 171.964 38.6979 171.036C37.4531 170.115 36.2292 169.161 35.0312 168.177C33.8333 167.193 32.6562 166.182 31.5104 165.141C30.3594 164.099 29.2396 163.031 28.1406 161.932C27.0417 160.839 25.9739 159.714 24.9323 158.563C23.8906 157.417 22.8802 156.24 21.8958 155.042C20.9114 153.844 19.9583 152.62 19.0364 151.375C18.1094 150.13 17.2187 148.865 16.3542 147.573C15.4948 146.286 14.6667 144.974 13.8698 143.646C13.0729 142.313 12.3073 140.964 11.5781 139.599C10.8437 138.229 10.1458 136.844 9.48437 135.443C8.82291 134.042 8.1927 132.625 7.59895 131.193C7.0052 129.76 6.44791 128.313 5.92707 126.854C5.40103 125.391 4.91666 123.922 4.46874 122.438C4.01562 120.953 3.60416 119.458 3.22395 117.953C2.84895 116.453 2.51041 114.938 2.20832 113.417C1.90624 111.896 1.64062 110.37 1.41145 108.833C1.18228 107.302 0.994783 105.76 0.84374 104.219C0.692699 102.677 0.578116 101.13 0.499991 99.5781C0.427074 98.0313 0.385406 96.4844 0.385406 94.9323C0.385406 93.3802 0.421866 91.8281 0.499991 90.2813C0.578116 88.7344 0.692699 87.1875 0.84374 85.6458C0.994783 84.099 1.18228 82.5625 1.41145 81.026C1.64062 79.4948 1.90624 77.9688 2.20832 76.4427C2.51041 74.9219 2.84895 73.4115 3.22395 71.9063C3.60416 70.401 4.01562 68.9115 4.46353 67.4271C4.91666 65.9427 5.40103 64.4688 5.92707 63.0104C6.44791 61.5469 7.0052 60.1042 7.59895 58.6719C8.1927 57.2396 8.8177 55.8177 9.48437 54.4167C10.1458 53.0156 10.8437 51.6302 11.5729 50.2656C12.3073 48.8958 13.0677 47.5469 13.8646 46.2188C14.6614 44.8854 15.4948 43.5781 16.3542 42.2865C17.2187 41 18.1094 39.7292 19.0312 38.4844C19.9583 37.2396 20.9114 36.0156 21.8958 34.8177C22.8802 33.6198 23.8906 32.4479 24.9323 31.2969C25.9739 30.1458 27.0417 29.026 28.1406 27.9271C29.2344 26.8333 30.3594 25.7604 31.5052 24.724C32.6562 23.6823 33.8281 22.6667 35.026 21.6823C36.2292 20.6979 37.4479 19.7448 38.6927 18.8229C39.9427 17.8958 41.2083 17.0052 42.4948 16.1458C43.7864 15.2813 45.0937 14.4531 46.4271 13.6563C47.7552 12.8594 49.1042 12.0937 50.4739 11.3646C51.8385 10.6302 53.224 9.9375 54.625 9.27083C56.0312 8.60937 57.4479 7.97917 58.8802 7.38542C60.3125 6.79167 61.7604 6.23438 63.2187 5.71354C64.6771 5.19271 66.151 4.70313 67.6354 4.25521C69.1198 3.80208 70.6146 3.39063 72.1146 3.01563C73.6198 2.63542 75.1354 2.29687 76.6562 1.99479C78.1771 1.69271 79.7031 1.42708 81.2344 1.19792C82.7708 0.973958 84.3073 0.781251 85.8542 0.630208C87.3958 0.479167 88.9427 0.364584 90.4896 0.286458C92.0417 0.213541 93.5885 0.171875 95.1406 0.171875C96.6927 0.171875 98.2396 0.213541 99.7917 0.286458C101.339 0.364584 102.885 0.479167 104.427 0.630208C105.969 0.781251 107.51 0.973958 109.042 1.19792C110.578 1.42708 112.104 1.69271 113.625 1.99479C115.146 2.29687 116.661 2.63542 118.161 3.01563C119.667 3.39063 121.161 3.80208 122.646 4.25521C124.13 4.70313 125.604 5.19271 127.062 5.71354C128.521 6.23438 129.969 6.79167 131.401 7.38542C132.833 7.97917 134.25 8.60937 135.651 9.27083C137.057 9.93229 138.443 10.6302 139.807 11.3594C141.177 12.0938 142.526 12.8594 143.854 13.6563C145.182 14.4531 146.495 15.2813 147.781 16.1406C149.073 17.0052 150.339 17.8958 151.589 18.8177C152.833 19.7448 154.052 20.6979 155.255 21.6823C156.453 22.6667 157.625 23.6771 158.776 24.7188C159.922 25.7604 161.047 26.8281 162.141 27.9271Z" fill="#039BE5"/>
<path fill-rule="evenodd" clip-rule="evenodd" d="M82.5052 104.391C77.7292 99.6146 75.0885 93.1771 75.0885 86.4271C75.0885 79.6719 77.7292 73.2344 82.5052 68.4583L110.203 40.7552C114.984 35.9792 121.422 33.3385 128.172 33.3385C134.927 33.3385 141.365 35.9792 146.141 40.7552C150.917 45.5313 153.557 51.974 153.557 58.724C153.557 65.474 150.917 71.9167 146.141 76.6927L124.682 98.151L116.88 90.349L138.339 68.8906C141.042 66.1875 142.526 62.5469 142.526 58.724C142.526 54.9063 141.042 51.2604 138.339 48.5573C135.635 45.8542 131.995 44.3698 128.172 44.3698C124.354 44.3698 120.714 45.8542 118.005 48.5521L90.3073 76.2552C87.6042 78.9583 86.1198 82.599 86.1198 86.4219C86.1198 90.2396 87.6042 93.8802 90.3125 96.5885L92 98.276L84.1927 106.089L82.5052 104.391Z" fill="#FFFFFE"/>
<path fill-rule="evenodd" clip-rule="evenodd" d="M107.781 85.4635C112.557 90.2448 115.198 96.6823 115.198 103.432C115.198 110.182 112.557 116.625 107.781 121.401L80.0833 149.099C75.3021 153.88 68.8646 156.521 62.1146 156.521C55.3594 156.521 48.9219 153.88 44.1458 149.099C39.3698 144.323 36.7239 137.885 36.7239 131.135C36.7239 124.38 39.3698 117.943 44.1458 113.167L65.6041 91.7083L73.4062 99.5104L51.9479 120.969C49.2396 123.672 47.7604 127.313 47.7604 131.135C47.7604 134.953 49.2448 138.594 51.9479 141.302C54.651 144.005 58.2916 145.49 62.1146 145.49C65.9323 145.49 69.5729 144.005 72.2812 141.302L99.9791 113.604C102.682 110.901 104.167 107.26 104.167 103.438C104.167 99.6198 102.682 95.974 99.9739 93.2708L98.2864 91.5833L106.089 83.7812L107.781 85.4635Z" fill="#FFFFFE"/>
<path d="M240.842 71.5464H228.154V64.0673C228.154 63.0152 227.55 62.4839 226.342 62.4839H223.8C222.592 62.4839 221.988 63.0152 221.988 64.0673V90.7548C221.988 91.8277 222.592 92.3589 223.8 92.3589H226.342C227.55 92.3589 228.154 91.8277 228.154 90.7548V83.5673H240.842V91.6923C240.842 97.6923 237.285 100.692 230.175 100.692H219.967C212.852 100.692 209.3 97.6923 209.3 91.6923V63.1298C209.3 57.1298 212.852 54.1298 219.967 54.1298H230.175C237.285 54.1298 240.842 57.1298 240.842 63.1298V71.5464Z" fill="#242424"/>
<path d="M276.826 70.0881H264.117V64.0673C264.117 63.0152 263.513 62.4839 262.305 62.4839H259.701C258.492 62.4839 257.888 63.0152 257.888 64.0673V90.7548C257.888 91.8277 258.492 92.3589 259.701 92.3589H262.305C263.513 92.3589 264.117 91.8277 264.117 90.7548V83.0048H260.492V74.9423H276.826V91.6923C276.826 97.6923 273.268 100.692 266.159 100.692H255.867C248.753 100.692 245.201 97.6923 245.201 91.6923V63.1298C245.201 57.1298 248.753 54.1298 255.867 54.1298H266.159C273.268 54.1298 276.826 57.1298 276.826 63.1298V70.0881Z" fill="#242424"/>
<path d="M307.849 76.9006L316.994 100.692H303.369L294.661 76.9006L303.286 54.1298H316.932L307.849 76.9006ZM281.89 100.692V54.1298H294.578V100.692H281.89Z" fill="#242424"/>
<path d="M318.891 82.9214V74.5881H340.85V82.9214H318.891Z" fill="#242424"/>
<path d="M357.539 100.692H345.205V52.1714H357.539V100.692Z" fill="#242424"/>
<path d="M363.128 60.8798V52.1714H375.878V60.8798H363.128ZM375.67 100.692H363.337V64.5048H375.67V100.692Z" fill="#242424"/>
<path d="M400.176 64.5048H401.489C407.916 64.5048 411.135 67.5048 411.135 73.5048V100.692H398.801V75.1714C398.801 74.1037 398.197 73.5673 396.989 73.5673H395.76C394.452 73.5673 393.801 74.2964 393.801 75.7548V100.692H381.468V64.5048H393.593V69.1506C394.26 66.0568 396.452 64.5048 400.176 64.5048Z" fill="#242424"/>
<path d="M428.904 100.692H416.571V52.1714H428.904V80.9631L435.716 64.5048H448.487L440.716 82.3381L448.487 100.692H435.654L428.904 83.7964V100.692Z" fill="#242424"/>
<path d="M212.943 122.608H229.735C235.277 122.608 238.047 124.941 238.047 129.608V140.004C238.047 144.67 235.277 147.004 229.735 147.004H222.839V158.879H212.943V122.608ZM228.152 138.712V130.92C228.152 130.087 227.678 129.67 226.735 129.67H222.839V139.941H226.735C227.678 139.941 228.152 139.535 228.152 138.712Z" fill="#00AFEF"/>
<path d="M251.598 146.004V158.879H241.702V122.608H258.494C264.036 122.608 266.806 124.941 266.806 129.608V138.983C266.806 142.566 265.181 144.774 261.931 145.608L268.598 158.879H257.994L252.223 146.004H251.598ZM255.494 129.67H251.598V139.274H255.494C256.437 139.274 256.911 138.858 256.911 138.024V130.92C256.911 130.087 256.437 129.67 255.494 129.67Z" fill="#00AFEF"/>
<path d="M279.172 122.608H287.526C293.068 122.608 295.839 124.941 295.839 129.608V151.879C295.839 156.545 293.068 158.879 287.526 158.879H279.172C273.63 158.879 270.859 156.545 270.859 151.879V129.608C270.859 124.941 273.63 122.608 279.172 122.608ZM285.943 150.566V130.92C285.943 130.087 285.474 129.67 284.547 129.67H282.172C281.224 129.67 280.755 130.087 280.755 130.92V150.566C280.755 151.399 281.224 151.816 282.172 151.816H284.547C285.474 151.816 285.943 151.399 285.943 150.566Z" fill="#00AFEF"/>
<path d="M298.775 144.358H308.671V150.566C308.671 151.399 309.14 151.816 310.088 151.816H310.692C311.635 151.816 312.109 151.399 312.109 150.566V122.608H322.005V151.879C322.005 156.545 319.234 158.879 313.692 158.879H307.088C301.546 158.879 298.775 156.545 298.775 151.879V144.358Z" fill="#00AFEF"/>
<path d="M336.462 151.816H348.837V158.879H326.566V122.608H348.337V129.67H336.462V137.066H346.691V144.129H336.462V151.816Z" fill="#00AFEF"/>
<path d="M376.53 136.17H366.634V130.337C366.634 129.519 366.16 129.108 365.218 129.108H363.238C362.306 129.108 361.843 129.519 361.843 130.337V151.129C361.843 151.962 362.306 152.379 363.238 152.379H365.218C366.16 152.379 366.634 151.962 366.634 151.129V145.545H376.53V151.879C376.53 156.545 373.759 158.879 368.218 158.879H360.259C354.718 158.879 351.947 156.545 351.947 151.879V129.608C351.947 124.941 354.718 122.608 360.259 122.608H368.218C373.759 122.608 376.53 124.941 376.53 129.608V136.17Z" fill="#00AFEF"/>
<path d="M402.343 122.608V129.67H395.343V158.879H385.447V129.67H378.51V122.608H402.343Z" fill="#00AFEF"/>
</svg>
